:SAMPLES-PER-SECOND 30
:FULLY-SPECIFIED
:DEGREES
66
root  21.91835539 37.71066741 -42.69622142 -2.734970093 4.205679893 2.659840107
lowerback  5.299339771 -2.213160038 -2.849679947
upperback  3.229690075 -3.065560102 1.096079946
thorax  0.5682669878 -1.586539984 2.862080097
lowerneck  -13.1796999 3.179830074 -0.957194984
upperneck  -2.882250071 4.39109993 -2.66463995
head  1.35055995 2.128770113 -0.4544810057
lclavicle  0 -1.620099928e-014 -1.431250036e-014
lhumerus  -23.87299919 -8.587120056 91.10489655
lradius  -1.549078789e-031 -3.173200111e-031 63.97949982
lwrist  -2.824900031e-030 -6.885693825e-030 27.14559937
lhand  -1.522208093e-030 -21.89089966 22.84740067
lfingers  90 7.125020027 -90
lthumb  90.61603193 7.755020578 85.4441456
rclavicle  0 -1.620099928e-014 -1.431250036e-014
rhumerus  -44.66540146 -11.11639977 -78.64499664
rradius  3.360185573e-031 1.085355679e-031 17.90069962
rwrist  0 -2.824900031e-030 -2.776439905
rhand  1.570731925e-030 -25.9428997 18.57430077
rfingers  -90 -7.125020027 -90
rthumb  -89.60083768 -33.59330664 -89.2785978
rfemur  -29.08119965 5.103579998 16.45179939
rtibia  -0 0 24.93639946
rfoot  -9.104097816e-032 -14.15149975 -7.061900139
rtoes  -1.575397198 19.94038992 -85.38945295
lfemur  15.88150024 -4.130060196 -30.8253994
ltibia  -0 0 10.29269981
lfoot  9.096628887e-032 -13.96370029 5.320869923
ltoes  -3.695914299 -19.66929668 -100.8636129
67
root  21.89157741 37.70755558 -42.29577733 -2.525510073 4.242280006 2.608880043
lowerback  5.051070213 -2.178299904 -2.844759941
upperback  3.165489912 -3.013240099 1.17840004
thorax  0.640715003 -1.561499953 2.932420015
lowerneck  -13.34309959 3.139240026 -0.6129469872
upperneck  -2.687109947 4.306399822 -3.232199907
head  1.467779994 2.064960003 -0.6919649839
lclavicle  0 -1.620099928e-014 -1.431250036e-014
lhumerus  -24.0807991 -8.865110397 91.31839752
lradius  -1.533608723e-031 -3.180705633e-031 64.25849915
lwrist  -2.824900031e-030 -3.70768129e-030 27.09989929
lhand  -1.522208093e-030 -21.89089966 22.84740067
lfingers  90 7.125020027 -90
lthumb  90.61603193 7.755020578 85.4441456
rclavicle  0 -1.620099928e-014 -1.431250036e-014
rhumerus  -45.07170105 -11.90030003 -77.9048996
rradius  3.367419428e-031 1.062699595e-031 17.51479912
rwrist  2.824900031e-030 1.412450015e-030 -2.179919958
rhand  1.570731925e-030 -25.9428997 18.57430077
rfingers  -90 -7.125020027 -90
rthumb  -89.60083768 -33.59330664 -89.2785978
rfemur  -29.52420044 4.493840218 16.8416996
rtibia  -0 0 24.66819954
rfoot  -9.127632484e-032 -14.72599983 -6.532589912
rtoes  -1.575397198 19.94038992 -85.38945295
lfemur  16.8159008 -4.09029007 -30.7105999
ltibia  -0 0 9.276889801
lfoot  4.536090806e-032 -13.32859993 5.438829899
ltoes  -3.695914299 -19.66929668 -100.8636129
68
root  21.8576221 37.67288989 -41.88400028 -2.21697998 4.457359791 2.876899958
lowerback  4.669690132 -2.23732996 -3.240400076
upperback  3.047940016 -3.09807992 1.250090003
thorax  0.7645400167 -1.611320019 3.216229916
lowerneck  -13.36690044 3.066060066 -0.9580259919
upperneck  -2.621999979 4.26086998 -3.165030003
head  1.482040048 2.044950008 -0.6137509942
lclavicle  0 -1.620099928e-014 -1.431250036e-014
lhumerus  -24.22800064 -8.67757988 91.51580048
lradius  -1.534169462e-031 -3.180435206e-031 64.24839783
lwrist  -2.824900031e-030 -2.295231275e-030 26.70009995
lhand  -1.522208093e-030 -21.89089966 22.84740067
lfingers  90 7.125020027 -90
lthumb  90.61603193 7.755020578 85.4441456
rclavicle  0 -1.620099928e-014 -1.431250036e-014
rhumerus  -45.43920135 -12.66720009 -76.97049713
rradius  3.376057714e-031 1.034929153e-031 17.04290009
rwrist  2.824900031e-030 -4.237350046e-030 -1.529099941
rhand  1.570731925e-030 -25.9428997 18.57430077
rfingers  -90 -7.125020027 -90
rthumb  -89.60083768 -33.59330664 -89.2785978
rfemur  -29.84329987 4.190060139 16.72570038
rtibia  -0 0 24.39690018
rfoot  -9.146073098e-032 -15.15929985 -6.741079807
rtoes  -1.575397198 19.94038992 -85.38945295
lfemur  17.23069954 -4.231979847 -30.90110016
ltibia  -0 0 9.112719536
lfoot  4.532062279e-032 -13.11190033 5.393819809
ltoes  -3.695914299 -19.66929668 -100.8636129
69
root  21.81437785 37.61110982 -41.48377847 -2.166589975 4.684130192 3.091830015
lowerback  4.682290077 -2.310610056 -3.551029921
upperback  3.006669998 -3.207979918 1.279379964
thorax  0.743934989 -1.670330048 3.425499916
lowerneck  -13.30780029 3.026720047 -1.810220003
upperneck  -2.885289907 4.30768013 -2.318320036
head  1.340989947 2.101279974 -0.2046419978
lclavicle  0 -1.620099928e-014 -1.431250036e-014
lhumerus  -24.28899956 -8.371649742 91.61260223
lradius  -1.540527791e-031 -3.177360251e-031 64.13379669
lwrist  0 -3.001456283e-030 26.23620033
lhand  -1.522208093e-030 -21.89089966 22.84740067
lfingers  90 7.125020027 -90
lthumb  90.61603193 7.755020578 85.4441456
rclavicle  0 -1.620099928e-014 -1.431250036e-014
rhumerus  -45.7677002 -13.72459984 -75.91239929
rradius  3.384955255e-031 1.005446149e-031 16.54319954
rwrist  0 -2.824900031e-030 -0.3081870079
rhand  1.570731925e-030 -25.9428997 18.57430077
rfingers  -90 -7.125020027 -90
rthumb  -89.60083768 -33.59330664 -89.2785978
rfemur  -29.74329948 4.166329861 16.63209915
rtibia  -0 0 24.1826992
rfoot  -0 -15.00230026 -7.496240139
rtoes  -1.575397198 19.94038992 -85.38945295
lfemur  17.49119949 -4.340229988 -31.05629921
ltibia  -0 0 9.689040184
lfoot  9.062392378e-032 -13.06480026 5.382249832
ltoes  -3.695914299 -19.66929668 -100.8636129
70
root  21.77735576 37.55800142 -41.08666548 -2.324909925 4.647409916 2.761529922
lowerback  4.856080055 -2.308769941 -3.249749899
upperback  3.039900064 -3.199009895 1.393149972
thorax  0.6697779894 -1.661599994 3.381279945
lowerneck  -13.59539986 3.042330027 -2.092560053
upperneck  -2.724720001 4.374720097 -1.961699963
head  1.428429961 2.141479969 -0.03476610035
lclavicle  0 -1.620099928e-014 -1.431250036e-014
lhumerus  -24.55870056 -8.324669838 91.79119873
lradius  -1.537570987e-031 -3.178792144e-031 64.18710327
lwrist  -2.824900031e-030 -2.648343779e-030 26.07390022
lhand  -1.522208093e-030 -21.89089966 22.84740067
lfingers  90 7.125020027 -90
lthumb  90.61603193 7.755020578 85.4441456
rclavicle  0 -1.620099928e-014 -1.431250036e-014
rhumerus  -46.07529831 -14.49909973 -75.16560364
rradius  3.391056312e-031 9.846731056e-032 16.19190025
rwrist  0 1.412450015e-030 0.5704540014
rhand  1.570731925e-030 -25.9428997 18.57430077
rfingers  -90 -7.125020027 -90
rthumb  -89.60083768 -33.59330664 -89.2785978
rfemur  -29.40329933 4.396609783 17.17140007
rtibia  -0 0 24.1984005
rfoot  -0 -14.5387001 -8.408289909
rtoes  -1.575397198 19.94038992 -85.38945295
lfemur  17.87059975 -4.191219807 -30.62879944
ltibia  -0 0 10.46329975
lfoot  4.533185301e-032 -13.17269993 5.221419811
ltoes  -3.695914299 -19.66929668 -100.8636129
